<?xml version="1.0" encoding="UTF-8" standalone="no"?>
<!DOCTYPE svg PUBLIC "-//W3C//DTD SVG 1.1//EN"
 "http://www.w3.org/Graphics/SVG/1.1/DTD/svg11.dtd">
<!-- Generated by graphviz version 2.43.0 (0)
 -->
<!-- Title: %3 Pages: 1 -->
<svg width="4008pt" height="692pt"
 viewBox="0.00 0.00 4008.43 692.00" xmlns="http://www.w3.org/2000/svg" xmlns:xlink="http://www.w3.org/1999/xlink">
<g id="graph0" class="graph" transform="scale(1 1) rotate(0) translate(4 688)">
<title>%3</title>
<polygon fill="white" stroke="transparent" points="-4,4 -4,-688 4004.43,-688 4004.43,4 -4,4"/>
<!-- [root] module.aws_web_server_instance.aws_instance.web_server (expand) -->
<g id="node1" class="node">
<title>[root] module.aws_web_server_instance.aws_instance.web_server (expand)</title>
<polygon fill="none" stroke="black" points="1818,-468 1474,-468 1474,-432 1818,-432 1818,-468"/>
<text text-anchor="middle" x="1646" y="-446.3" font-family="Times,serif" font-size="14.00">module.aws_web_server_instance.aws_instance.web_server</text>
</g>
<!-- [root] module.aws_web_server_instance.aws_security_group.web_server (expand) -->
<g id="node2" class="node">
<title>[root] module.aws_web_server_instance.aws_security_group.web_server (expand)</title>
<polygon fill="none" stroke="black" points="1767.5,-396 1386.5,-396 1386.5,-360 1767.5,-360 1767.5,-396"/>
<text text-anchor="middle" x="1577" y="-374.3" font-family="Times,serif" font-size="14.00">module.aws_web_server_instance.aws_security_group.web_server</text>
</g>
<!-- [root] module.aws_web_server_instance.aws_instance.web_server (expand)&#45;&gt;[root] module.aws_web_server_instance.aws_security_group.web_server (expand) -->
<g id="edge3" class="edge">
<title>[root] module.aws_web_server_instance.aws_instance.web_server (expand)&#45;&gt;[root] module.aws_web_server_instance.aws_security_group.web_server (expand)</title>
<path fill="none" stroke="black" d="M1628.94,-431.7C1620.5,-423.14 1610.18,-412.66 1600.96,-403.3"/>
<polygon fill="black" stroke="black" points="1603.37,-400.77 1593.86,-396.1 1598.39,-405.68 1603.37,-400.77"/>
</g>
<!-- [root] module.aws_web_server_instance.data.aws_ami.amazon_linux (expand) -->
<g id="node3" class="node">
<title>[root] module.aws_web_server_instance.data.aws_ami.amazon_linux (expand)</title>
<polygon fill="none" stroke="black" points="362,-324 0,-324 0,-288 362,-288 362,-324"/>
<text text-anchor="middle" x="181" y="-302.3" font-family="Times,serif" font-size="14.00">module.aws_web_server_instance.data.aws_ami.amazon_linux</text>
</g>
<!-- [root] module.aws_web_server_instance.aws_instance.web_server (expand)&#45;&gt;[root] module.aws_web_server_instance.data.aws_ami.amazon_linux (expand) -->
<g id="edge4" class="edge">
<title>[root] module.aws_web_server_instance.aws_instance.web_server (expand)&#45;&gt;[root] module.aws_web_server_instance.data.aws_ami.amazon_linux (expand)</title>
<path fill="none" stroke="black" d="M1473.85,-448.29C1100.94,-445.99 248.02,-436.33 200,-396 182.46,-381.27 178.69,-354.69 178.72,-334.4"/>
<polygon fill="black" stroke="black" points="182.23,-334.28 179.05,-324.17 175.23,-334.06 182.23,-334.28"/>
</g>
<!-- [root] module.aws_web_server_instance.var.ec2_instance_name (expand) -->
<g id="node15" class="node">
<title>[root] module.aws_web_server_instance.var.ec2_instance_name (expand)</title>
<ellipse fill="none" stroke="black" cx="481" cy="-378" rx="272.15" ry="18"/>
<text text-anchor="middle" x="481" y="-374.3" font-family="Times,serif" font-size="14.00">[root] module.aws_web_server_instance.var.ec2_instance_name (expand)</text>
</g>
<!-- [root] module.aws_web_server_instance.aws_instance.web_server (expand)&#45;&gt;[root] module.aws_web_server_instance.var.ec2_instance_name (expand) -->
<g id="edge5" class="edge">
<title>[root] module.aws_web_server_instance.aws_instance.web_server (expand)&#45;&gt;[root] module.aws_web_server_instance.var.ec2_instance_name (expand)</title>
<path fill="none" stroke="black" d="M1473.83,-438.68C1295.87,-428.01 1010,-410.86 763,-396 737.71,-394.48 711.15,-392.88 684.85,-391.3"/>
<polygon fill="black" stroke="black" points="684.99,-387.8 674.79,-390.69 684.56,-394.78 684.99,-387.8"/>
</g>
<!-- [root] module.aws_web_server_instance.var.ec2_instance_type (expand) -->
<g id="node16" class="node">
<title>[root] module.aws_web_server_instance.var.ec2_instance_type (expand)</title>
<ellipse fill="none" stroke="black" cx="1040" cy="-378" rx="268.35" ry="18"/>
<text text-anchor="middle" x="1040" y="-374.3" font-family="Times,serif" font-size="14.00">[root] module.aws_web_server_instance.var.ec2_instance_type (expand)</text>
</g>
<!-- [root] module.aws_web_server_instance.aws_instance.web_server (expand)&#45;&gt;[root] module.aws_web_server_instance.var.ec2_instance_type (expand) -->
<g id="edge6" class="edge">
<title>[root] module.aws_web_server_instance.aws_instance.web_server (expand)&#45;&gt;[root] module.aws_web_server_instance.var.ec2_instance_type (expand)</title>
<path fill="none" stroke="black" d="M1498.53,-431.97C1400.99,-420.7 1273.96,-406.03 1178.34,-394.98"/>
<polygon fill="black" stroke="black" points="1178.65,-391.49 1168.31,-393.82 1177.84,-398.45 1178.65,-391.49"/>
</g>
<!-- [root] module.aws_web_server_instance.var.subnet_id (expand) -->
<g id="node17" class="node">
<title>[root] module.aws_web_server_instance.var.subnet_id (expand)</title>
<ellipse fill="none" stroke="black" cx="2354" cy="-378" rx="237.46" ry="18"/>
<text text-anchor="middle" x="2354" y="-374.3" font-family="Times,serif" font-size="14.00">[root] module.aws_web_server_instance.var.subnet_id (expand)</text>
</g>
<!-- [root] module.aws_web_server_instance.aws_instance.web_server (expand)&#45;&gt;[root] module.aws_web_server_instance.var.subnet_id (expand) -->
<g id="edge7" class="edge">
<title>[root] module.aws_web_server_instance.aws_instance.web_server (expand)&#45;&gt;[root] module.aws_web_server_instance.var.subnet_id (expand)</title>
<path fill="none" stroke="black" d="M1818.29,-431.97C1936.89,-420.24 2092.83,-404.82 2205.86,-393.65"/>
<polygon fill="black" stroke="black" points="2206.36,-397.11 2215.97,-392.65 2205.67,-390.15 2206.36,-397.11"/>
</g>
<!-- [root] module.aws_web_server_instance.var.ec2_security_group_description (expand) -->
<g id="node18" class="node">
<title>[root] module.aws_web_server_instance.var.ec2_security_group_description (expand)</title>
<ellipse fill="none" stroke="black" cx="927" cy="-306" rx="315.74" ry="18"/>
<text text-anchor="middle" x="927" y="-302.3" font-family="Times,serif" font-size="14.00">[root] module.aws_web_server_instance.var.ec2_security_group_description (expand)</text>
</g>
<!-- [root] module.aws_web_server_instance.aws_security_group.web_server (expand)&#45;&gt;[root] module.aws_web_server_instance.var.ec2_security_group_description (expand) -->
<g id="edge8" class="edge">
<title>[root] module.aws_web_server_instance.aws_security_group.web_server (expand)&#45;&gt;[root] module.aws_web_server_instance.var.ec2_security_group_description (expand)</title>
<path fill="none" stroke="black" d="M1418.82,-359.97C1314.99,-348.78 1180,-334.25 1077.71,-323.23"/>
<polygon fill="black" stroke="black" points="1077.92,-319.73 1067.6,-322.14 1077.17,-326.69 1077.92,-319.73"/>
</g>
<!-- [root] module.aws_web_server_instance.var.ec2_security_group_name (expand) -->
<g id="node19" class="node">
<title>[root] module.aws_web_server_instance.var.ec2_security_group_name (expand)</title>
<ellipse fill="none" stroke="black" cx="1557" cy="-306" rx="296.25" ry="18"/>
<text text-anchor="middle" x="1557" y="-302.3" font-family="Times,serif" font-size="14.00">[root] module.aws_web_server_instance.var.ec2_security_group_name (expand)</text>
</g>
<!-- [root] module.aws_web_server_instance.aws_security_group.web_server (expand)&#45;&gt;[root] module.aws_web_server_instance.var.ec2_security_group_name (expand) -->
<g id="edge9" class="edge">
<title>[root] module.aws_web_server_instance.aws_security_group.web_server (expand)&#45;&gt;[root] module.aws_web_server_instance.var.ec2_security_group_name (expand)</title>
<path fill="none" stroke="black" d="M1572.06,-359.7C1569.83,-351.9 1567.15,-342.51 1564.67,-333.83"/>
<polygon fill="black" stroke="black" points="1568,-332.76 1561.89,-324.1 1561.27,-334.68 1568,-332.76"/>
</g>
<!-- [root] module.aws_web_server_instance.var.vpc_id (expand) -->
<g id="node20" class="node">
<title>[root] module.aws_web_server_instance.var.vpc_id (expand)</title>
<ellipse fill="none" stroke="black" cx="2099" cy="-306" rx="227.46" ry="18"/>
<text text-anchor="middle" x="2099" y="-302.3" font-family="Times,serif" font-size="14.00">[root] module.aws_web_server_instance.var.vpc_id (expand)</text>
</g>
<!-- [root] module.aws_web_server_instance.aws_security_group.web_server (expand)&#45;&gt;[root] module.aws_web_server_instance.var.vpc_id (expand) -->
<g id="edge10" class="edge">
<title>[root] module.aws_web_server_instance.aws_security_group.web_server (expand)&#45;&gt;[root] module.aws_web_server_instance.var.vpc_id (expand)</title>
<path fill="none" stroke="black" d="M1704.03,-359.97C1787.61,-348.76 1896.33,-334.18 1978.55,-323.15"/>
<polygon fill="black" stroke="black" points="1979.24,-326.59 1988.69,-321.79 1978.31,-319.65 1979.24,-326.59"/>
</g>
<!-- [root] provider[&quot;registry.terraform.io/hashicorp/aws&quot;] -->
<g id="node9" class="node">
<title>[root] provider[&quot;registry.terraform.io/hashicorp/aws&quot;]</title>
<polygon fill="none" stroke="black" points="1027,-108 774.46,-90 1027,-72 1279.54,-90 1027,-108"/>
<text text-anchor="middle" x="1027" y="-86.3" font-family="Times,serif" font-size="14.00">provider[&quot;registry.terraform.io/hashicorp/aws&quot;]</text>
</g>
<!-- [root] module.aws_web_server_instance.data.aws_ami.amazon_linux (expand)&#45;&gt;[root] provider[&quot;registry.terraform.io/hashicorp/aws&quot;] -->
<g id="edge12" class="edge">
<title>[root] module.aws_web_server_instance.data.aws_ami.amazon_linux (expand)&#45;&gt;[root] provider[&quot;registry.terraform.io/hashicorp/aws&quot;]</title>
<path fill="none" stroke="black" d="M248.45,-287.94C408.56,-247.44 809.72,-145.96 964.61,-106.78"/>
<polygon fill="black" stroke="black" points="965.62,-110.14 974.45,-104.29 963.9,-103.35 965.62,-110.14"/>
</g>
<!-- [root] module.aws_web_server_instance (expand) -->
<g id="node21" class="node">
<title>[root] module.aws_web_server_instance (expand)</title>
<ellipse fill="none" stroke="black" cx="927" cy="-234" rx="187.67" ry="18"/>
<text text-anchor="middle" x="927" y="-230.3" font-family="Times,serif" font-size="14.00">[root] module.aws_web_server_instance (expand)</text>
</g>
<!-- [root] module.aws_web_server_instance.data.aws_ami.amazon_linux (expand)&#45;&gt;[root] module.aws_web_server_instance (expand) -->
<g id="edge11" class="edge">
<title>[root] module.aws_web_server_instance.data.aws_ami.amazon_linux (expand)&#45;&gt;[root] module.aws_web_server_instance (expand)</title>
<path fill="none" stroke="black" d="M362.06,-288.01C493.14,-275.71 667.69,-259.33 787.9,-248.05"/>
<polygon fill="black" stroke="black" points="788.28,-251.53 797.91,-247.11 787.62,-244.56 788.28,-251.53"/>
</g>
<!-- [root] module.aws_web_server_vpc.aws_internet_gateway.web_server (expand) -->
<g id="node4" class="node">
<title>[root] module.aws_web_server_vpc.aws_internet_gateway.web_server (expand)</title>
<polygon fill="none" stroke="black" points="3509,-252 3141,-252 3141,-216 3509,-216 3509,-252"/>
<text text-anchor="middle" x="3325" y="-230.3" font-family="Times,serif" font-size="14.00">module.aws_web_server_vpc.aws_internet_gateway.web_server</text>
</g>
<!-- [root] module.aws_web_server_vpc.aws_vpc.web_server (expand) -->
<g id="node8" class="node">
<title>[root] module.aws_web_server_vpc.aws_vpc.web_server (expand)</title>
<polygon fill="none" stroke="black" points="3042.5,-180 2747.5,-180 2747.5,-144 3042.5,-144 3042.5,-180"/>
<text text-anchor="middle" x="2895" y="-158.3" font-family="Times,serif" font-size="14.00">module.aws_web_server_vpc.aws_vpc.web_server</text>
</g>
<!-- [root] module.aws_web_server_vpc.aws_internet_gateway.web_server (expand)&#45;&gt;[root] module.aws_web_server_vpc.aws_vpc.web_server (expand) -->
<g id="edge27" class="edge">
<title>[root] module.aws_web_server_vpc.aws_internet_gateway.web_server (expand)&#45;&gt;[root] module.aws_web_server_vpc.aws_vpc.web_server (expand)</title>
<path fill="none" stroke="black" d="M3220.36,-215.97C3156.63,-205.59 3075.16,-192.33 3009.69,-181.67"/>
<polygon fill="black" stroke="black" points="3010.17,-178.2 2999.74,-180.05 3009.04,-185.11 3010.17,-178.2"/>
</g>
<!-- [root] module.aws_web_server_vpc.var.igw_name (expand) -->
<g id="node25" class="node">
<title>[root] module.aws_web_server_vpc.var.igw_name (expand)</title>
<ellipse fill="none" stroke="black" cx="3325" cy="-90" rx="224.46" ry="18"/>
<text text-anchor="middle" x="3325" y="-86.3" font-family="Times,serif" font-size="14.00">[root] module.aws_web_server_vpc.var.igw_name (expand)</text>
</g>
<!-- [root] module.aws_web_server_vpc.aws_internet_gateway.web_server (expand)&#45;&gt;[root] module.aws_web_server_vpc.var.igw_name (expand) -->
<g id="edge28" class="edge">
<title>[root] module.aws_web_server_vpc.aws_internet_gateway.web_server (expand)&#45;&gt;[root] module.aws_web_server_vpc.var.igw_name (expand)</title>
<path fill="none" stroke="black" d="M3325,-215.87C3325,-191.67 3325,-147.21 3325,-118.39"/>
<polygon fill="black" stroke="black" points="3328.5,-118.19 3325,-108.19 3321.5,-118.19 3328.5,-118.19"/>
</g>
<!-- [root] module.aws_web_server_vpc.aws_route_table.web_server (expand) -->
<g id="node5" class="node">
<title>[root] module.aws_web_server_vpc.aws_route_table.web_server (expand)</title>
<polygon fill="none" stroke="black" points="3501,-324 3165,-324 3165,-288 3501,-288 3501,-324"/>
<text text-anchor="middle" x="3333" y="-302.3" font-family="Times,serif" font-size="14.00">module.aws_web_server_vpc.aws_route_table.web_server</text>
</g>
<!-- [root] module.aws_web_server_vpc.aws_route_table.web_server (expand)&#45;&gt;[root] module.aws_web_server_vpc.aws_internet_gateway.web_server (expand) -->
<g id="edge29" class="edge">
<title>[root] module.aws_web_server_vpc.aws_route_table.web_server (expand)&#45;&gt;[root] module.aws_web_server_vpc.aws_internet_gateway.web_server (expand)</title>
<path fill="none" stroke="black" d="M3331.02,-287.7C3330.14,-279.98 3329.08,-270.71 3328.1,-262.11"/>
<polygon fill="black" stroke="black" points="3331.57,-261.64 3326.95,-252.1 3324.61,-262.44 3331.57,-261.64"/>
</g>
<!-- [root] module.aws_web_server_vpc.var.rt_name (expand) -->
<g id="node26" class="node">
<title>[root] module.aws_web_server_vpc.var.rt_name (expand)</title>
<ellipse fill="none" stroke="black" cx="3784" cy="-90" rx="216.36" ry="18"/>
<text text-anchor="middle" x="3784" y="-86.3" font-family="Times,serif" font-size="14.00">[root] module.aws_web_server_vpc.var.rt_name (expand)</text>
</g>
<!-- [root] module.aws_web_server_vpc.aws_route_table.web_server (expand)&#45;&gt;[root] module.aws_web_server_vpc.var.rt_name (expand) -->
<g id="edge30" class="edge">
<title>[root] module.aws_web_server_vpc.aws_route_table.web_server (expand)&#45;&gt;[root] module.aws_web_server_vpc.var.rt_name (expand)</title>
<path fill="none" stroke="black" d="M3409.75,-287.89C3443.66,-279.1 3483.55,-267.04 3518,-252 3607.84,-212.78 3704.07,-148.19 3752.42,-113.95"/>
<polygon fill="black" stroke="black" points="3754.48,-116.78 3760.6,-108.13 3750.42,-111.08 3754.48,-116.78"/>
</g>
<!-- [root] module.aws_web_server_vpc.aws_route_table_association.web_server (expand) -->
<g id="node6" class="node">
<title>[root] module.aws_web_server_vpc.aws_route_table_association.web_server (expand)</title>
<polygon fill="none" stroke="black" points="3108.5,-396 2705.5,-396 2705.5,-360 3108.5,-360 3108.5,-396"/>
<text text-anchor="middle" x="2907" y="-374.3" font-family="Times,serif" font-size="14.00">module.aws_web_server_vpc.aws_route_table_association.web_server</text>
</g>
<!-- [root] module.aws_web_server_vpc.aws_route_table_association.web_server (expand)&#45;&gt;[root] module.aws_web_server_vpc.aws_route_table.web_server (expand) -->
<g id="edge31" class="edge">
<title>[root] module.aws_web_server_vpc.aws_route_table_association.web_server (expand)&#45;&gt;[root] module.aws_web_server_vpc.aws_route_table.web_server (expand)</title>
<path fill="none" stroke="black" d="M3010.67,-359.97C3073.67,-349.61 3154.18,-336.38 3218.98,-325.74"/>
<polygon fill="black" stroke="black" points="3219.94,-329.13 3229.24,-324.05 3218.8,-322.22 3219.94,-329.13"/>
</g>
<!-- [root] module.aws_web_server_vpc.aws_subnet.web_server (expand) -->
<g id="node7" class="node">
<title>[root] module.aws_web_server_vpc.aws_subnet.web_server (expand)</title>
<polygon fill="none" stroke="black" points="2637.5,-252 2326.5,-252 2326.5,-216 2637.5,-216 2637.5,-252"/>
<text text-anchor="middle" x="2482" y="-230.3" font-family="Times,serif" font-size="14.00">module.aws_web_server_vpc.aws_subnet.web_server</text>
</g>
<!-- [root] module.aws_web_server_vpc.aws_route_table_association.web_server (expand)&#45;&gt;[root] module.aws_web_server_vpc.aws_subnet.web_server (expand) -->
<g id="edge32" class="edge">
<title>[root] module.aws_web_server_vpc.aws_route_table_association.web_server (expand)&#45;&gt;[root] module.aws_web_server_vpc.aws_subnet.web_server (expand)</title>
<path fill="none" stroke="black" d="M2902.4,-359.74C2895.92,-339.07 2882.02,-305.1 2857,-288 2839.06,-275.74 2739.67,-262.01 2647.72,-251.6"/>
<polygon fill="black" stroke="black" points="2648.03,-248.11 2637.71,-250.47 2647.25,-255.06 2648.03,-248.11"/>
</g>
<!-- [root] module.aws_web_server_vpc.aws_subnet.web_server (expand)&#45;&gt;[root] module.aws_web_server_vpc.aws_vpc.web_server (expand) -->
<g id="edge33" class="edge">
<title>[root] module.aws_web_server_vpc.aws_subnet.web_server (expand)&#45;&gt;[root] module.aws_web_server_vpc.aws_vpc.web_server (expand)</title>
<path fill="none" stroke="black" d="M2582.5,-215.97C2643.58,-205.61 2721.64,-192.38 2784.46,-181.74"/>
<polygon fill="black" stroke="black" points="2785.13,-185.17 2794.4,-180.05 2783.96,-178.27 2785.13,-185.17"/>
</g>
<!-- [root] module.aws_web_server_vpc.var.aws_az (expand) -->
<g id="node27" class="node">
<title>[root] module.aws_web_server_vpc.var.aws_az (expand)</title>
<ellipse fill="none" stroke="black" cx="1994" cy="-162" rx="213.36" ry="18"/>
<text text-anchor="middle" x="1994" y="-158.3" font-family="Times,serif" font-size="14.00">[root] module.aws_web_server_vpc.var.aws_az (expand)</text>
</g>
<!-- [root] module.aws_web_server_vpc.aws_subnet.web_server (expand)&#45;&gt;[root] module.aws_web_server_vpc.var.aws_az (expand) -->
<g id="edge34" class="edge">
<title>[root] module.aws_web_server_vpc.aws_subnet.web_server (expand)&#45;&gt;[root] module.aws_web_server_vpc.var.aws_az (expand)</title>
<path fill="none" stroke="black" d="M2363.25,-215.97C2285.35,-204.79 2184.09,-190.27 2107.31,-179.25"/>
<polygon fill="black" stroke="black" points="2107.52,-175.75 2097.12,-177.79 2106.53,-182.68 2107.52,-175.75"/>
</g>
<!-- [root] module.aws_web_server_vpc.var.subnet_cidr_block (expand) -->
<g id="node28" class="node">
<title>[root] module.aws_web_server_vpc.var.subnet_cidr_block (expand)</title>
<ellipse fill="none" stroke="black" cx="2477" cy="-162" rx="252.36" ry="18"/>
<text text-anchor="middle" x="2477" y="-158.3" font-family="Times,serif" font-size="14.00">[root] module.aws_web_server_vpc.var.subnet_cidr_block (expand)</text>
</g>
<!-- [root] module.aws_web_server_vpc.aws_subnet.web_server (expand)&#45;&gt;[root] module.aws_web_server_vpc.var.subnet_cidr_block (expand) -->
<g id="edge35" class="edge">
<title>[root] module.aws_web_server_vpc.aws_subnet.web_server (expand)&#45;&gt;[root] module.aws_web_server_vpc.var.subnet_cidr_block (expand)</title>
<path fill="none" stroke="black" d="M2480.76,-215.7C2480.21,-207.98 2479.55,-198.71 2478.94,-190.11"/>
<polygon fill="black" stroke="black" points="2482.43,-189.83 2478.22,-180.1 2475.44,-190.33 2482.43,-189.83"/>
</g>
<!-- [root] module.aws_web_server_vpc.var.subnet_name (expand) -->
<g id="node29" class="node">
<title>[root] module.aws_web_server_vpc.var.subnet_name (expand)</title>
<ellipse fill="none" stroke="black" cx="1529" cy="-162" rx="233.96" ry="18"/>
<text text-anchor="middle" x="1529" y="-158.3" font-family="Times,serif" font-size="14.00">[root] module.aws_web_server_vpc.var.subnet_name (expand)</text>
</g>
<!-- [root] module.aws_web_server_vpc.aws_subnet.web_server (expand)&#45;&gt;[root] module.aws_web_server_vpc.var.subnet_name (expand) -->
<g id="edge36" class="edge">
<title>[root] module.aws_web_server_vpc.aws_subnet.web_server (expand)&#45;&gt;[root] module.aws_web_server_vpc.var.subnet_name (expand)</title>
<path fill="none" stroke="black" d="M2326.5,-221.58C2154.98,-208.98 1879.74,-188.76 1701.65,-175.68"/>
<polygon fill="black" stroke="black" points="1701.89,-172.19 1691.66,-174.95 1701.37,-179.17 1701.89,-172.19"/>
</g>
<!-- [root] module.aws_web_server_vpc.aws_vpc.web_server (expand)&#45;&gt;[root] provider[&quot;registry.terraform.io/hashicorp/aws&quot;] -->
<g id="edge39" class="edge">
<title>[root] module.aws_web_server_vpc.aws_vpc.web_server (expand)&#45;&gt;[root] provider[&quot;registry.terraform.io/hashicorp/aws&quot;]</title>
<path fill="none" stroke="black" d="M2747.11,-144.67C2744.05,-144.43 2741.01,-144.21 2738,-144 2208.35,-107.18 1584.69,-95.94 1256.16,-92.51"/>
<polygon fill="black" stroke="black" points="1256.08,-89.01 1246.04,-92.4 1256.01,-96.01 1256.08,-89.01"/>
</g>
<!-- [root] module.aws_web_server_vpc.var.vpc_cidr_block (expand) -->
<g id="node30" class="node">
<title>[root] module.aws_web_server_vpc.var.vpc_cidr_block (expand)</title>
<ellipse fill="none" stroke="black" cx="2376" cy="-90" rx="241.56" ry="18"/>
<text text-anchor="middle" x="2376" y="-86.3" font-family="Times,serif" font-size="14.00">[root] module.aws_web_server_vpc.var.vpc_cidr_block (expand)</text>
</g>
<!-- [root] module.aws_web_server_vpc.aws_vpc.web_server (expand)&#45;&gt;[root] module.aws_web_server_vpc.var.vpc_cidr_block (expand) -->
<g id="edge37" class="edge">
<title>[root] module.aws_web_server_vpc.aws_vpc.web_server (expand)&#45;&gt;[root] module.aws_web_server_vpc.var.vpc_cidr_block (expand)</title>
<path fill="none" stroke="black" d="M2768.7,-143.97C2686.26,-132.85 2579.22,-118.41 2497.72,-107.42"/>
<polygon fill="black" stroke="black" points="2497.78,-103.89 2487.4,-106.03 2496.84,-110.83 2497.78,-103.89"/>
</g>
<!-- [root] module.aws_web_server_vpc.var.vpc_name (expand) -->
<g id="node31" class="node">
<title>[root] module.aws_web_server_vpc.var.vpc_name (expand)</title>
<ellipse fill="none" stroke="black" cx="2859" cy="-90" rx="223.66" ry="18"/>
<text text-anchor="middle" x="2859" y="-86.3" font-family="Times,serif" font-size="14.00">[root] module.aws_web_server_vpc.var.vpc_name (expand)</text>
</g>
<!-- [root] module.aws_web_server_vpc.aws_vpc.web_server (expand)&#45;&gt;[root] module.aws_web_server_vpc.var.vpc_name (expand) -->
<g id="edge38" class="edge">
<title>[root] module.aws_web_server_vpc.aws_vpc.web_server (expand)&#45;&gt;[root] module.aws_web_server_vpc.var.vpc_name (expand)</title>
<path fill="none" stroke="black" d="M2886.1,-143.7C2882,-135.73 2877.05,-126.1 2872.51,-117.26"/>
<polygon fill="black" stroke="black" points="2875.48,-115.4 2867.8,-108.1 2869.26,-118.6 2875.48,-115.4"/>
</g>
<!-- [root] var.aws_region -->
<g id="node10" class="node">
<title>[root] var.aws_region</title>
<polygon fill="none" stroke="black" points="1070.5,-36 977.5,-36 977.5,0 1076.5,0 1076.5,-30 1070.5,-36"/>
<polyline fill="none" stroke="black" points="1070.5,-36 1070.5,-30 "/>
<polyline fill="none" stroke="black" points="1076.5,-30 1070.5,-30 "/>
<text text-anchor="middle" x="1027" y="-14.3" font-family="Times,serif" font-size="14.00">var.aws_region</text>
</g>
<!-- [root] provider[&quot;registry.terraform.io/hashicorp/aws&quot;]&#45;&gt;[root] var.aws_region -->
<g id="edge54" class="edge">
<title>[root] provider[&quot;registry.terraform.io/hashicorp/aws&quot;]&#45;&gt;[root] var.aws_region</title>
<path fill="none" stroke="black" d="M1027,-71.7C1027,-63.98 1027,-54.71 1027,-46.11"/>
<polygon fill="black" stroke="black" points="1030.5,-46.1 1027,-36.1 1023.5,-46.1 1030.5,-46.1"/>
</g>
<!-- [root] var.ec2_instance_type -->
<g id="node11" class="node">
<title>[root] var.ec2_instance_type</title>
<polygon fill="none" stroke="black" points="587.5,-324 456.5,-324 456.5,-288 593.5,-288 593.5,-318 587.5,-324"/>
<polyline fill="none" stroke="black" points="587.5,-324 587.5,-318 "/>
<polyline fill="none" stroke="black" points="593.5,-318 587.5,-318 "/>
<text text-anchor="middle" x="525" y="-302.3" font-family="Times,serif" font-size="14.00">var.ec2_instance_type</text>
</g>
<!-- [root] module.aws_web_server_instance (close) -->
<g id="node12" class="node">
<title>[root] module.aws_web_server_instance (close)</title>
<ellipse fill="none" stroke="black" cx="2020" cy="-594" rx="180.87" ry="18"/>
<text text-anchor="middle" x="2020" y="-590.3" font-family="Times,serif" font-size="14.00">[root] module.aws_web_server_instance (close)</text>
</g>
<!-- [root] module.aws_web_server_instance.output.instance_id (expand) -->
<g id="node13" class="node">
<title>[root] module.aws_web_server_instance.output.instance_id (expand)</title>
<ellipse fill="none" stroke="black" cx="2210" cy="-522" rx="254.55" ry="18"/>
<text text-anchor="middle" x="2210" y="-518.3" font-family="Times,serif" font-size="14.00">[root] module.aws_web_server_instance.output.instance_id (expand)</text>
</g>
<!-- [root] module.aws_web_server_instance (close)&#45;&gt;[root] module.aws_web_server_instance.output.instance_id (expand) -->
<g id="edge1" class="edge">
<title>[root] module.aws_web_server_instance (close)&#45;&gt;[root] module.aws_web_server_instance.output.instance_id (expand)</title>
<path fill="none" stroke="black" d="M2065.03,-576.41C2092.04,-566.46 2126.59,-553.73 2155.19,-543.19"/>
<polygon fill="black" stroke="black" points="2156.46,-546.45 2164.64,-539.71 2154.04,-539.89 2156.46,-546.45"/>
</g>
<!-- [root] module.aws_web_server_instance.output.instance_public_ip (expand) -->
<g id="node14" class="node">
<title>[root] module.aws_web_server_instance.output.instance_public_ip (expand)</title>
<ellipse fill="none" stroke="black" cx="1656" cy="-522" rx="281.35" ry="18"/>
<text text-anchor="middle" x="1656" y="-518.3" font-family="Times,serif" font-size="14.00">[root] module.aws_web_server_instance.output.instance_public_ip (expand)</text>
</g>
<!-- [root] module.aws_web_server_instance (close)&#45;&gt;[root] module.aws_web_server_instance.output.instance_public_ip (expand) -->
<g id="edge2" class="edge">
<title>[root] module.aws_web_server_instance (close)&#45;&gt;[root] module.aws_web_server_instance.output.instance_public_ip (expand)</title>
<path fill="none" stroke="black" d="M1940.57,-577.72C1884.61,-566.96 1809.43,-552.51 1750.41,-541.15"/>
<polygon fill="black" stroke="black" points="1750.81,-537.67 1740.33,-539.22 1749.49,-544.54 1750.81,-537.67"/>
</g>
<!-- [root] module.aws_web_server_instance.output.instance_id (expand)&#45;&gt;[root] module.aws_web_server_instance.aws_instance.web_server (expand) -->
<g id="edge13" class="edge">
<title>[root] module.aws_web_server_instance.output.instance_id (expand)&#45;&gt;[root] module.aws_web_server_instance.aws_instance.web_server (expand)</title>
<path fill="none" stroke="black" d="M2090.05,-506.11C2003.29,-495.34 1885.57,-480.73 1793.13,-469.26"/>
<polygon fill="black" stroke="black" points="1793.48,-465.78 1783.13,-468.02 1792.62,-472.72 1793.48,-465.78"/>
</g>
<!-- [root] module.aws_web_server_instance.output.instance_public_ip (expand)&#45;&gt;[root] module.aws_web_server_instance.aws_instance.web_server (expand) -->
<g id="edge14" class="edge">
<title>[root] module.aws_web_server_instance.output.instance_public_ip (expand)&#45;&gt;[root] module.aws_web_server_instance.aws_instance.web_server (expand)</title>
<path fill="none" stroke="black" d="M1653.53,-503.7C1652.43,-495.98 1651.1,-486.71 1649.87,-478.11"/>
<polygon fill="black" stroke="black" points="1653.32,-477.51 1648.44,-468.1 1646.39,-478.5 1653.32,-477.51"/>
</g>
<!-- [root] module.aws_web_server_instance.var.ec2_instance_name (expand)&#45;&gt;[root] module.aws_web_server_instance (expand) -->
<g id="edge15" class="edge">
<title>[root] module.aws_web_server_instance.var.ec2_instance_name (expand)&#45;&gt;[root] module.aws_web_server_instance (expand)</title>
<path fill="none" stroke="black" d="M461.15,-360.04C441.08,-340.9 415.59,-309.61 435,-288 456.21,-264.39 616.87,-250.37 748.92,-242.75"/>
<polygon fill="black" stroke="black" points="749.4,-246.23 759.18,-242.16 749,-239.24 749.4,-246.23"/>
</g>
<!-- [root] module.aws_web_server_instance.var.ec2_instance_type (expand)&#45;&gt;[root] var.ec2_instance_type -->
<g id="edge17" class="edge">
<title>[root] module.aws_web_server_instance.var.ec2_instance_type (expand)&#45;&gt;[root] var.ec2_instance_type</title>
<path fill="none" stroke="black" d="M893.49,-362.86C810.9,-354.02 705.68,-341.33 603.93,-324.25"/>
<polygon fill="black" stroke="black" points="604.23,-320.75 593.78,-322.53 603.06,-327.65 604.23,-320.75"/>
</g>
<!-- [root] module.aws_web_server_instance.var.ec2_instance_type (expand)&#45;&gt;[root] module.aws_web_server_instance (expand) -->
<g id="edge16" class="edge">
<title>[root] module.aws_web_server_instance.var.ec2_instance_type (expand)&#45;&gt;[root] module.aws_web_server_instance (expand)</title>
<path fill="none" stroke="black" d="M866.08,-364.26C693.67,-351.22 454.12,-331.79 447,-324 436.2,-312.19 436.33,-299.92 447,-288 467.56,-265.04 622.87,-250.97 751.34,-243.15"/>
<polygon fill="black" stroke="black" points="751.55,-246.65 761.32,-242.56 751.13,-239.66 751.55,-246.65"/>
</g>
<!-- [root] module.aws_web_server_instance.var.subnet_id (expand)&#45;&gt;[root] module.aws_web_server_instance (expand) -->
<g id="edge20" class="edge">
<title>[root] module.aws_web_server_instance.var.subnet_id (expand)&#45;&gt;[root] module.aws_web_server_instance (expand)</title>
<path fill="none" stroke="black" d="M2355.95,-359.83C2357.21,-339.26 2355.68,-305.39 2335,-288 2289.48,-249.73 1500.55,-239.02 1123.99,-236.08"/>
<polygon fill="black" stroke="black" points="1123.82,-232.58 1113.79,-236 1123.76,-239.58 1123.82,-232.58"/>
</g>
<!-- [root] module.aws_web_server_vpc.output.subnet_id (expand) -->
<g id="node22" class="node">
<title>[root] module.aws_web_server_vpc.output.subnet_id (expand)</title>
<ellipse fill="none" stroke="black" cx="2615" cy="-306" rx="233.16" ry="18"/>
<text text-anchor="middle" x="2615" y="-302.3" font-family="Times,serif" font-size="14.00">[root] module.aws_web_server_vpc.output.subnet_id (expand)</text>
</g>
<!-- [root] module.aws_web_server_instance.var.subnet_id (expand)&#45;&gt;[root] module.aws_web_server_vpc.output.subnet_id (expand) -->
<g id="edge21" class="edge">
<title>[root] module.aws_web_server_instance.var.subnet_id (expand)&#45;&gt;[root] module.aws_web_server_vpc.output.subnet_id (expand)</title>
<path fill="none" stroke="black" d="M2415.19,-360.59C2453.75,-350.25 2503.68,-336.86 2543.98,-326.05"/>
<polygon fill="black" stroke="black" points="2544.99,-329.4 2553.74,-323.43 2543.17,-322.64 2544.99,-329.4"/>
</g>
<!-- [root] module.aws_web_server_instance.var.ec2_security_group_description (expand)&#45;&gt;[root] module.aws_web_server_instance (expand) -->
<g id="edge18" class="edge">
<title>[root] module.aws_web_server_instance.var.ec2_security_group_description (expand)&#45;&gt;[root] module.aws_web_server_instance (expand)</title>
<path fill="none" stroke="black" d="M927,-287.7C927,-279.98 927,-270.71 927,-262.11"/>
<polygon fill="black" stroke="black" points="930.5,-262.1 927,-252.1 923.5,-262.1 930.5,-262.1"/>
</g>
<!-- [root] module.aws_web_server_instance.var.ec2_security_group_name (expand)&#45;&gt;[root] module.aws_web_server_instance (expand) -->
<g id="edge19" class="edge">
<title>[root] module.aws_web_server_instance.var.ec2_security_group_name (expand)&#45;&gt;[root] module.aws_web_server_instance (expand)</title>
<path fill="none" stroke="black" d="M1421.46,-289.94C1312.77,-277.86 1161.3,-261.03 1054.73,-249.19"/>
<polygon fill="black" stroke="black" points="1054.88,-245.69 1044.56,-248.06 1054.11,-252.64 1054.88,-245.69"/>
</g>
<!-- [root] module.aws_web_server_instance.var.vpc_id (expand)&#45;&gt;[root] module.aws_web_server_instance (expand) -->
<g id="edge22" class="edge">
<title>[root] module.aws_web_server_instance.var.vpc_id (expand)&#45;&gt;[root] module.aws_web_server_instance (expand)</title>
<path fill="none" stroke="black" d="M1939.03,-293.2C1913.28,-291.39 1886.91,-289.6 1862,-288 1595.14,-270.87 1285.23,-253.87 1097.75,-243.91"/>
<polygon fill="black" stroke="black" points="1097.7,-240.4 1087.53,-243.37 1097.33,-247.39 1097.7,-240.4"/>
</g>
<!-- [root] module.aws_web_server_vpc.output.vpc_id (expand) -->
<g id="node23" class="node">
<title>[root] module.aws_web_server_vpc.output.vpc_id (expand)</title>
<ellipse fill="none" stroke="black" cx="2884" cy="-234" rx="222.86" ry="18"/>
<text text-anchor="middle" x="2884" y="-230.3" font-family="Times,serif" font-size="14.00">[root] module.aws_web_server_vpc.output.vpc_id (expand)</text>
</g>
<!-- [root] module.aws_web_server_instance.var.vpc_id (expand)&#45;&gt;[root] module.aws_web_server_vpc.output.vpc_id (expand) -->
<g id="edge23" class="edge">
<title>[root] module.aws_web_server_instance.var.vpc_id (expand)&#45;&gt;[root] module.aws_web_server_vpc.output.vpc_id (expand)</title>
<path fill="none" stroke="black" d="M2243.9,-292.08C2382.12,-279.75 2589.59,-261.25 2730.58,-248.68"/>
<polygon fill="black" stroke="black" points="2730.96,-252.16 2740.61,-247.79 2730.34,-245.19 2730.96,-252.16"/>
</g>
<!-- [root] module.aws_web_server_vpc.output.subnet_id (expand)&#45;&gt;[root] module.aws_web_server_vpc.aws_subnet.web_server (expand) -->
<g id="edge40" class="edge">
<title>[root] module.aws_web_server_vpc.output.subnet_id (expand)&#45;&gt;[root] module.aws_web_server_vpc.aws_subnet.web_server (expand)</title>
<path fill="none" stroke="black" d="M2582.8,-288.05C2564.97,-278.67 2542.59,-266.89 2523.46,-256.82"/>
<polygon fill="black" stroke="black" points="2524.84,-253.59 2514.36,-252.03 2521.58,-259.79 2524.84,-253.59"/>
</g>
<!-- [root] module.aws_web_server_vpc.output.vpc_id (expand)&#45;&gt;[root] module.aws_web_server_vpc.aws_vpc.web_server (expand) -->
<g id="edge41" class="edge">
<title>[root] module.aws_web_server_vpc.output.vpc_id (expand)&#45;&gt;[root] module.aws_web_server_vpc.aws_vpc.web_server (expand)</title>
<path fill="none" stroke="black" d="M2886.72,-215.7C2887.93,-207.98 2889.39,-198.71 2890.74,-190.11"/>
<polygon fill="black" stroke="black" points="2894.22,-190.53 2892.31,-180.1 2887.3,-189.44 2894.22,-190.53"/>
</g>
<!-- [root] module.aws_web_server_vpc (close) -->
<g id="node24" class="node">
<title>[root] module.aws_web_server_vpc (close)</title>
<ellipse fill="none" stroke="black" cx="2648" cy="-450" rx="164.37" ry="18"/>
<text text-anchor="middle" x="2648" y="-446.3" font-family="Times,serif" font-size="14.00">[root] module.aws_web_server_vpc (close)</text>
</g>
<!-- [root] module.aws_web_server_vpc (close)&#45;&gt;[root] module.aws_web_server_vpc.aws_route_table_association.web_server (expand) -->
<g id="edge24" class="edge">
<title>[root] module.aws_web_server_vpc (close)&#45;&gt;[root] module.aws_web_server_vpc.aws_route_table_association.web_server (expand)</title>
<path fill="none" stroke="black" d="M2706.77,-433.12C2744.55,-422.91 2793.91,-409.56 2834.18,-398.68"/>
<polygon fill="black" stroke="black" points="2835.2,-402.03 2843.94,-396.04 2833.37,-395.27 2835.2,-402.03"/>
</g>
<!-- [root] module.aws_web_server_vpc (close)&#45;&gt;[root] module.aws_web_server_vpc.output.subnet_id (expand) -->
<g id="edge25" class="edge">
<title>[root] module.aws_web_server_vpc (close)&#45;&gt;[root] module.aws_web_server_vpc.output.subnet_id (expand)</title>
<path fill="none" stroke="black" d="M2644.02,-431.87C2638.37,-407.56 2627.97,-362.82 2621.28,-334.01"/>
<polygon fill="black" stroke="black" points="2624.67,-333.14 2618.99,-324.19 2617.85,-334.72 2624.67,-333.14"/>
</g>
<!-- [root] module.aws_web_server_vpc (close)&#45;&gt;[root] module.aws_web_server_vpc.output.vpc_id (expand) -->
<g id="edge26" class="edge">
<title>[root] module.aws_web_server_vpc (close)&#45;&gt;[root] module.aws_web_server_vpc.output.vpc_id (expand)</title>
<path fill="none" stroke="black" d="M2652.76,-431.71C2659.29,-411.35 2673.03,-378.01 2697,-360 2755.27,-316.21 2803.61,-373.62 2857,-324 2874.04,-308.16 2880.46,-281.95 2882.8,-262.07"/>
<polygon fill="black" stroke="black" points="2886.29,-262.33 2883.71,-252.06 2879.32,-261.7 2886.29,-262.33"/>
</g>
<!-- [root] module.aws_web_server_vpc (expand) -->
<g id="node32" class="node">
<title>[root] module.aws_web_server_vpc (expand)</title>
<ellipse fill="none" stroke="black" cx="2376" cy="-18" rx="171.67" ry="18"/>
<text text-anchor="middle" x="2376" y="-14.3" font-family="Times,serif" font-size="14.00">[root] module.aws_web_server_vpc (expand)</text>
</g>
<!-- [root] module.aws_web_server_vpc.var.igw_name (expand)&#45;&gt;[root] module.aws_web_server_vpc (expand) -->
<g id="edge43" class="edge">
<title>[root] module.aws_web_server_vpc.var.igw_name (expand)&#45;&gt;[root] module.aws_web_server_vpc (expand)</title>
<path fill="none" stroke="black" d="M3166.16,-77.28C2986.42,-64.03 2696.09,-42.61 2521.89,-29.76"/>
<polygon fill="black" stroke="black" points="2522.11,-26.27 2511.87,-29.02 2521.59,-33.25 2522.11,-26.27"/>
</g>
<!-- [root] module.aws_web_server_vpc.var.rt_name (expand)&#45;&gt;[root] module.aws_web_server_vpc (expand) -->
<g id="edge44" class="edge">
<title>[root] module.aws_web_server_vpc.var.rt_name (expand)&#45;&gt;[root] module.aws_web_server_vpc (expand)</title>
<path fill="none" stroke="black" d="M3633.6,-77.05C3608.37,-75.23 3582.45,-73.47 3558,-72 3197.86,-50.39 2775.51,-33.48 2545.83,-25"/>
<polygon fill="black" stroke="black" points="2545.84,-21.5 2535.72,-24.63 2545.58,-28.49 2545.84,-21.5"/>
</g>
<!-- [root] module.aws_web_server_vpc.var.aws_az (expand)&#45;&gt;[root] module.aws_web_server_vpc (expand) -->
<g id="edge42" class="edge">
<title>[root] module.aws_web_server_vpc.var.aws_az (expand)&#45;&gt;[root] module.aws_web_server_vpc (expand)</title>
<path fill="none" stroke="black" d="M2010.62,-144C2031.6,-123.59 2069.71,-89.89 2109,-72 2151.38,-52.7 2200.7,-40.41 2245.34,-32.58"/>
<polygon fill="black" stroke="black" points="2246.1,-36 2255.38,-30.88 2244.93,-29.1 2246.1,-36"/>
</g>
<!-- [root] module.aws_web_server_vpc.var.subnet_cidr_block (expand)&#45;&gt;[root] module.aws_web_server_vpc (expand) -->
<g id="edge45" class="edge">
<title>[root] module.aws_web_server_vpc.var.subnet_cidr_block (expand)&#45;&gt;[root] module.aws_web_server_vpc (expand)</title>
<path fill="none" stroke="black" d="M2326.51,-147.48C2237.19,-137.89 2138.71,-123.93 2125,-108 2086.03,-62.73 2150.33,-40.48 2223.58,-29.55"/>
<polygon fill="black" stroke="black" points="2224.09,-33.02 2233.5,-28.15 2223.1,-26.09 2224.09,-33.02"/>
</g>
<!-- [root] module.aws_web_server_vpc.var.subnet_name (expand)&#45;&gt;[root] module.aws_web_server_vpc (expand) -->
<g id="edge46" class="edge">
<title>[root] module.aws_web_server_vpc.var.subnet_name (expand)&#45;&gt;[root] module.aws_web_server_vpc (expand)</title>
<path fill="none" stroke="black" d="M1618.96,-145.3C1722.43,-127.31 1897.4,-97.08 2048,-72 2124.29,-59.3 2210.64,-45.36 2275.58,-34.97"/>
<polygon fill="black" stroke="black" points="2276.5,-38.37 2285.82,-33.33 2275.39,-31.46 2276.5,-38.37"/>
</g>
<!-- [root] module.aws_web_server_vpc.var.vpc_cidr_block (expand)&#45;&gt;[root] module.aws_web_server_vpc (expand) -->
<g id="edge47" class="edge">
<title>[root] module.aws_web_server_vpc.var.vpc_cidr_block (expand)&#45;&gt;[root] module.aws_web_server_vpc (expand)</title>
<path fill="none" stroke="black" d="M2376,-71.7C2376,-63.98 2376,-54.71 2376,-46.11"/>
<polygon fill="black" stroke="black" points="2379.5,-46.1 2376,-36.1 2372.5,-46.1 2379.5,-46.1"/>
</g>
<!-- [root] module.aws_web_server_vpc.var.vpc_name (expand)&#45;&gt;[root] module.aws_web_server_vpc (expand) -->
<g id="edge48" class="edge">
<title>[root] module.aws_web_server_vpc.var.vpc_name (expand)&#45;&gt;[root] module.aws_web_server_vpc (expand)</title>
<path fill="none" stroke="black" d="M2755.68,-74.03C2675.16,-62.36 2563.74,-46.21 2482.44,-34.43"/>
<polygon fill="black" stroke="black" points="2482.57,-30.91 2472.17,-32.94 2481.57,-37.84 2482.57,-30.91"/>
</g>
<!-- [root] output.instance_id (expand) -->
<g id="node33" class="node">
<title>[root] output.instance_id (expand)</title>
<ellipse fill="none" stroke="black" cx="2351" cy="-594" rx="131.88" ry="18"/>
<text text-anchor="middle" x="2351" y="-590.3" font-family="Times,serif" font-size="14.00">[root] output.instance_id (expand)</text>
</g>
<!-- [root] output.instance_id (expand)&#45;&gt;[root] module.aws_web_server_instance.output.instance_id (expand) -->
<g id="edge49" class="edge">
<title>[root] output.instance_id (expand)&#45;&gt;[root] module.aws_web_server_instance.output.instance_id (expand)</title>
<path fill="none" stroke="black" d="M2317.58,-576.41C2298.38,-566.87 2274.03,-554.79 2253.36,-544.53"/>
<polygon fill="black" stroke="black" points="2254.67,-541.27 2244.15,-539.96 2251.56,-547.54 2254.67,-541.27"/>
</g>
<!-- [root] output.instance_public_ip (expand) -->
<g id="node34" class="node">
<title>[root] output.instance_public_ip (expand)</title>
<ellipse fill="none" stroke="black" cx="1661" cy="-594" rx="157.87" ry="18"/>
<text text-anchor="middle" x="1661" y="-590.3" font-family="Times,serif" font-size="14.00">[root] output.instance_public_ip (expand)</text>
</g>
<!-- [root] output.instance_public_ip (expand)&#45;&gt;[root] module.aws_web_server_instance.output.instance_public_ip (expand) -->
<g id="edge50" class="edge">
<title>[root] output.instance_public_ip (expand)&#45;&gt;[root] module.aws_web_server_instance.output.instance_public_ip (expand)</title>
<path fill="none" stroke="black" d="M1659.76,-575.7C1659.21,-567.98 1658.55,-558.71 1657.94,-550.11"/>
<polygon fill="black" stroke="black" points="1661.43,-549.83 1657.22,-540.1 1654.44,-550.33 1661.43,-549.83"/>
</g>
<!-- [root] output.vpc_id (expand) -->
<g id="node35" class="node">
<title>[root] output.vpc_id (expand)</title>
<ellipse fill="none" stroke="black" cx="3091" cy="-450" rx="115.88" ry="18"/>
<text text-anchor="middle" x="3091" y="-446.3" font-family="Times,serif" font-size="14.00">[root] output.vpc_id (expand)</text>
</g>
<!-- [root] output.vpc_id (expand)&#45;&gt;[root] module.aws_web_server_vpc.output.vpc_id (expand) -->
<g id="edge51" class="edge">
<title>[root] output.vpc_id (expand)&#45;&gt;[root] module.aws_web_server_vpc.output.vpc_id (expand)</title>
<path fill="none" stroke="black" d="M3104,-431.92C3116.52,-413.22 3131.7,-382.85 3118,-360 3084.54,-304.2 3016.75,-271.92 2962.71,-254.19"/>
<polygon fill="black" stroke="black" points="2963.73,-250.84 2953.14,-251.15 2961.61,-257.51 2963.73,-250.84"/>
</g>
<!-- [root] provider[&quot;registry.terraform.io/hashicorp/aws&quot;] (close) -->
<g id="node36" class="node">
<title>[root] provider[&quot;registry.terraform.io/hashicorp/aws&quot;] (close)</title>
<ellipse fill="none" stroke="black" cx="2766" cy="-522" rx="227.46" ry="18"/>
<text text-anchor="middle" x="2766" y="-518.3" font-family="Times,serif" font-size="14.00">[root] provider[&quot;registry.terraform.io/hashicorp/aws&quot;] (close)</text>
</g>
<!-- [root] provider[&quot;registry.terraform.io/hashicorp/aws&quot;] (close)&#45;&gt;[root] module.aws_web_server_instance.aws_instance.web_server (expand) -->
<g id="edge52" class="edge">
<title>[root] provider[&quot;registry.terraform.io/hashicorp/aws&quot;] (close)&#45;&gt;[root] module.aws_web_server_instance.aws_instance.web_server (expand)</title>
<path fill="none" stroke="black" d="M2593.76,-510.24C2386.6,-497.29 2040.38,-475.65 1828.67,-462.42"/>
<polygon fill="black" stroke="black" points="1828.58,-458.9 1818.38,-461.77 1828.14,-465.89 1828.58,-458.9"/>
</g>
<!-- [root] provider[&quot;registry.terraform.io/hashicorp/aws&quot;] (close)&#45;&gt;[root] module.aws_web_server_vpc.aws_route_table_association.web_server (expand) -->
<g id="edge53" class="edge">
<title>[root] provider[&quot;registry.terraform.io/hashicorp/aws&quot;] (close)&#45;&gt;[root] module.aws_web_server_vpc.aws_route_table_association.web_server (expand)</title>
<path fill="none" stroke="black" d="M2783.99,-503.97C2794.81,-493.66 2808.8,-480.18 2821,-468 2842.55,-446.48 2866.6,-421.5 2883.78,-403.5"/>
<polygon fill="black" stroke="black" points="2886.33,-405.89 2890.69,-396.24 2881.26,-401.07 2886.33,-405.89"/>
</g>
<!-- [root] root -->
<g id="node37" class="node">
<title>[root] root</title>
<ellipse fill="none" stroke="black" cx="2431" cy="-666" rx="47.39" ry="18"/>
<text text-anchor="middle" x="2431" y="-662.3" font-family="Times,serif" font-size="14.00">[root] root</text>
</g>
<!-- [root] root&#45;&gt;[root] module.aws_web_server_instance (close) -->
<g id="edge55" class="edge">
<title>[root] root&#45;&gt;[root] module.aws_web_server_instance (close)</title>
<path fill="none" stroke="black" d="M2388.56,-657.77C2324.94,-646.94 2203.11,-626.19 2116.97,-611.52"/>
<polygon fill="black" stroke="black" points="2117.36,-608.03 2106.91,-609.8 2116.18,-614.93 2117.36,-608.03"/>
</g>
<!-- [root] root&#45;&gt;[root] module.aws_web_server_vpc (close) -->
<g id="edge56" class="edge">
<title>[root] root&#45;&gt;[root] module.aws_web_server_vpc (close)</title>
<path fill="none" stroke="black" d="M2453.34,-650.08C2466.18,-640.52 2481.75,-627.08 2492,-612 2520.6,-569.91 2495.56,-541.46 2530,-504 2543.33,-489.5 2561.38,-478.71 2579.35,-470.8"/>
<polygon fill="black" stroke="black" points="2580.81,-473.98 2588.71,-466.92 2578.13,-467.52 2580.81,-473.98"/>
</g>
<!-- [root] root&#45;&gt;[root] output.instance_id (expand) -->
<g id="edge57" class="edge">
<title>[root] root&#45;&gt;[root] output.instance_id (expand)</title>
<path fill="none" stroke="black" d="M2412.85,-649.12C2402.58,-640.14 2389.55,-628.73 2378.1,-618.71"/>
<polygon fill="black" stroke="black" points="2380.31,-616 2370.48,-612.04 2375.7,-621.26 2380.31,-616"/>
</g>
<!-- [root] root&#45;&gt;[root] output.instance_public_ip (expand) -->
<g id="edge58" class="edge">
<title>[root] root&#45;&gt;[root] output.instance_public_ip (expand)</title>
<path fill="none" stroke="black" d="M2384.99,-661.14C2284.33,-652.64 2037,-631.54 1830,-612 1815.19,-610.6 1799.65,-609.09 1784.25,-607.58"/>
<polygon fill="black" stroke="black" points="1784.46,-604.08 1774.16,-606.58 1783.77,-611.05 1784.46,-604.08"/>
</g>
<!-- [root] root&#45;&gt;[root] output.vpc_id (expand) -->
<g id="edge59" class="edge">
<title>[root] root&#45;&gt;[root] output.vpc_id (expand)</title>
<path fill="none" stroke="black" d="M2478.12,-663.52C2579.92,-658.52 2825.49,-636.53 3002,-540 3030.81,-524.24 3056.47,-496.31 3072.75,-475.93"/>
<polygon fill="black" stroke="black" points="3075.55,-478.03 3078.92,-467.99 3070.02,-473.73 3075.55,-478.03"/>
</g>
<!-- [root] root&#45;&gt;[root] provider[&quot;registry.terraform.io/hashicorp/aws&quot;] (close) -->
<g id="edge60" class="edge">
<title>[root] root&#45;&gt;[root] provider[&quot;registry.terraform.io/hashicorp/aws&quot;] (close)</title>
<path fill="none" stroke="black" d="M2461.32,-652.15C2519.31,-627.57 2646.42,-573.69 2716.75,-543.87"/>
<polygon fill="black" stroke="black" points="2718.45,-546.96 2726.29,-539.83 2715.71,-540.51 2718.45,-546.96"/>
</g>
</g>
</svg>
